<?xml version="1.0" encoding="UTF-8"?>
<svg width="77px" height="82px" viewBox="0 0 77 82" version="1.1" xmlns="http://www.w3.org/2000/svg" xmlns:xlink="http://www.w3.org/1999/xlink">
    <!-- Generator: Sketch 48.2 (47327) - http://www.bohemiancoding.com/sketch -->
    <title>HowItWorks-icon-3</title>
    <desc>Created with Sketch.</desc>
    <defs></defs>
    <g id="How-It-Works" stroke="none" stroke-width="1" fill="none" fill-rule="evenodd" transform="translate(-691.000000, -290.000000)">
        <g id="HowItWorks-icon-3">
            <g transform="translate(691.000000, 290.000000)">
                <path d="M15.4,59.5466667 C20.5041138,59.5466667 24.64,55.4094552 24.64,50.3075204 C24.64,45.2055856 20.5041138,41.0683741 15.4017076,41.0666667 C10.2993014,41.0666667 6.16170763,45.2038782 6.16,50.3058129 L6.16,50.3075204 C6.16,55.4094552 10.2975938,59.5466667 15.4,59.5466667" id="Fill-1" fill="#4264E3"></path>
                <path d="M58.52,66.7333333 C63.6224062,66.7333333 67.76,62.5974472 67.76,57.4933333 C67.76,52.3909271 63.6241138,48.2533333 58.5217076,48.2533333 C53.4193014,48.2533333 49.2817076,52.3892195 49.28,57.4916257 L49.28,57.4933333 C49.28,62.5974472 53.4175938,66.7333333 58.52,66.7333333" id="Fill-6" fill="#4264E3"></path>
                <path d="M14.8866667,61.6 C4.09548816,61.6 0,69.8138866 0,69.8138866 L0,73.92 L29.7733333,73.92 L29.7733333,69.8138866 C29.7733333,69.8138866 25.6778452,61.6 14.8866667,61.6" id="Fill-3" fill="#3F60E1"></path>
                <path d="M59.5466667,68.7866667 C49.1275978,68.7866667 45.1733333,76.9994468 45.1733333,76.9994468 L45.1733333,81.1066667 L73.92,81.1066667 L73.92,76.9994468 C73.92,76.9994468 69.9657356,68.7866667 59.5466667,68.7866667" id="Fill-8" fill="#3F60E1"></path>
                <path d="M45.1733333,7.43087315 C45.1733333,3.34480907 41.879843,0 37.852825,0 L10.4005084,0 C6.37349031,0 3.08,3.34480907 3.08,7.43087315 L3.08,39.0133333 L14.059942,27.8678565 L32.1995743,27.8678565 C32.0764992,27.3531423 31.9911671,26.8251023 31.9911671,26.2754075 L31.9911671,14.483623 C31.9911671,10.7790137 34.9761491,7.74736405 38.6273778,7.74736405 L45.1733333,7.74736405 L45.1733333,7.43087315 Z" id="Fill-11" fill="#D8D8D8"></path>
                <path d="M70.3941914,13.3466667 L45.619142,13.3466667 C41.9846404,13.3466667 39.0133333,16.3385727 39.0133333,19.9962601 L39.0133333,31.6318156 C39.0133333,35.289503 41.9846404,38.2797652 45.619142,38.2797652 L67.091287,38.2797652 L77,48.2533333 L77,19.9962601 C77,16.3385727 74.0286929,13.3466667 70.3941914,13.3466667" id="Fill-13" fill="#D8D8D8"></path>
            </g>
        </g>
    </g>
</svg>