<?xml version="1.0" encoding="UTF-8"?>
<svg width="87px" height="79px" viewBox="0 0 87 79" version="1.1" xmlns="http://www.w3.org/2000/svg" xmlns:xlink="http://www.w3.org/1999/xlink">
    <!-- Generator: Sketch 48.2 (47327) - http://www.bohemiancoding.com/sketch -->
    <title>HowItWorks-icon-4</title>
    <desc>Created with Sketch.</desc>
    <defs></defs>
    <g id="How-It-Works" stroke="none" stroke-width="1" fill="none" fill-rule="evenodd" transform="translate(-890.000000, -292.000000)">
        <g id="HowItWorks-icon-4">
            <g transform="translate(890.000000, 292.000000)">
                <path d="M84.4597673,30.8589837 C84.4597673,30.8589837 47.1108346,56.791676 45.4126615,57.6282144 C43.715325,58.4647529 41.1689019,57.6282144 41.1689019,57.6282144 L2.97088269,31.6955221 C0.000334615385,30.4407144 0.000334615385,32.9503298 0.000334615385,32.9503298 L0.000334615385,75.6137913 C0.000334615385,78.9599452 2.54675769,78.9599452 2.54675769,78.9599452 L84.0356423,78.9599452 C86.5820654,78.9599452 86.5820654,75.6137913 86.5820654,75.6137913 L86.5820654,32.1137913 C86.5820654,29.604176 84.4597673,30.8589837 84.4597673,30.8589837" id="Fill-1" fill="#D8D8D8"></path>
                <path d="M46.4278846,0.743599038 C43.9182692,-0.929477885 41.4086538,0.743599038 41.4086538,0.743599038 L24.6778846,12.4551375 L62.3221154,12.4551375 C62.3221154,12.4551375 48.9375,2.41667596 46.4278846,0.743599038" id="Fill-4" fill="#D8D8D8"></path>
                <polygon id="Fill-6" fill="#D8D8D8" points="79.8894231 24.166676 79.8894231 29.1859067 82.3990385 26.6762913"></polygon>
                <polygon id="Fill-8" fill="#D8D8D8" points="6.27403846 24.166676 2.92788462 26.6762913 6.27403846 29.1859067"></polygon>
                <path d="M78.2163462,12.4551375 L7.94711538,12.4551375 C6.27403846,12.4551375 6.27403846,14.1282144 6.27403846,14.1282144 L6.27403846,29.1859067 L9.62019231,31.6955221 L9.62019231,15.3830221 L77.3798077,15.3830221 L77.3798077,31.6955221 L79.8894231,29.1859067 L79.8894231,14.1282144 C79.8894231,12.4551375 78.2163462,12.4551375 78.2163462,12.4551375" id="Fill-10" fill="#3957DD"></path>
                <path d="M68.5961538,24.166676 L43.5,24.166676 C42.3497596,24.166676 41.4086538,25.1077817 41.4086538,26.2580221 C41.4086538,27.4082625 42.3497596,28.3493683 43.5,28.3493683 L68.5961538,28.3493683 C69.7463942,28.3493683 70.6875,27.4082625 70.6875,26.2580221 C70.6875,25.1077817 69.7463942,24.166676 68.5961538,24.166676" id="Fill-14" fill="#3957DD"></path>
                <path d="M56.9941183,35.8782144 L38.371099,35.8782144 C37.7411856,35.8782144 37.2258779,36.3935221 37.2258779,37.0234356 L37.2258779,37.2426087 C37.2258779,37.8725221 37.7411856,38.3878298 38.371099,38.3878298 L56.9941183,38.3878298 C57.6240317,38.3878298 58.1393394,37.8725221 58.1393394,37.2426087 L58.1393394,37.0234356 C58.1393394,36.3935221 57.6240317,35.8782144 56.9941183,35.8782144" id="Fill-16" fill="#3957DD"></path>
                <path d="M56.9941183,41.7339837 L38.371099,41.7339837 C37.7411856,41.7339837 37.2258779,42.2492913 37.2258779,42.8792048 L37.2258779,43.0983779 C37.2258779,43.7282913 37.7411856,44.243599 38.371099,44.243599 L56.9941183,44.243599 C57.6240317,44.243599 58.1393394,43.7282913 58.1393394,43.0983779 L58.1393394,42.8792048 C58.1393394,42.2492913 57.6240317,41.7339837 56.9941183,41.7339837" id="Fill-18" fill="#3957DD"></path>
                <path d="M28.9909096,34.9779317 L18.8838519,35.0565663 L18.8838519,31.4945856 C18.8838519,29.9018163 20.0207077,28.5976529 21.4101981,28.5976529 L26.4637269,28.5976529 C27.8540538,28.5976529 28.9909096,29.9018163 28.9909096,31.4945856 L28.9909096,34.9779317 Z M24.0294,21.2528452 C25.7535058,21.2528452 27.1513615,22.650701 27.1513615,24.3739702 C27.1513615,26.0989125 25.7535058,27.4967683 24.0294,27.4967683 C22.3052942,27.4967683 20.9074385,26.0989125 20.9074385,24.3739702 C20.9074385,22.650701 22.3052942,21.2528452 24.0294,21.2528452 Z M31.3139769,19.3697971 L16.7448231,19.3697971 C16.3616885,19.3697971 16.0504962,19.6809894 16.0504962,20.064124 L16.0504962,36.0210952 C16.0504962,36.4042298 16.3616885,36.7145856 16.7448231,36.7145856 L31.3139769,36.7145856 C31.6971115,36.7145856 32.0074673,36.4042298 32.0074673,36.0210952 L32.0074673,27.2315856 L32.0074673,23.9398067 L32.0074673,20.064124 C32.0074673,19.6809894 31.6971115,19.3697971 31.3139769,19.3697971 Z" id="Fill-12" fill="#3957DD"></path>
            </g>
        </g>
    </g>
</svg>