<?xml version="1.0" encoding="UTF-8"?>
<svg width="78px" height="82px" viewBox="0 0 78 82" version="1.1" xmlns="http://www.w3.org/2000/svg" xmlns:xlink="http://www.w3.org/1999/xlink">
    <!-- Generator: Sketch 48.2 (47327) - http://www.bohemiancoding.com/sketch -->
    <title>HowItWorks-icon-5</title>
    <desc>Created with Sketch.</desc>
    <defs></defs>
    <g id="How-It-Works" stroke="none" stroke-width="1" fill="none" fill-rule="evenodd" transform="translate(-1108.000000, -290.000000)">
        <g id="HowItWorks-icon-5">
            <g transform="translate(1108.000000, 290.000000)">
                <path d="M8.87236688,3 L3,38.8536066 L3,78 L67,78 L67,3 L8.87236688,3 Z" id="Rectangle-44" stroke="#D8D8D8" stroke-width="6" transform="translate(35.000000, 40.500000) rotate(-180.000000) translate(-35.000000, -40.500000) "></path>
                <path d="M35,25.4368115 C31.5933189,25.4368115 28.8308061,22.6525193 28.8308061,19.2189803 L28.8308061,19.2178312 C28.8319462,15.7842922 31.594459,13 35.0011401,13 C38.4078212,13.0011491 41.1691939,15.7854413 41.1691939,19.2189803 C41.1691939,22.6525193 38.4078212,25.4368115 35,25.4368115 Z M35,27.4701606 C42.2488884,27.4701606 45,33.1571032 45,33.1571032 L45,36 L25,36 L25,33.1571032 C25,33.1571032 27.7511116,27.4701606 35,27.4701606 Z M14.5,47 L30.5,47 C31.8807119,47 33,48.1192881 33,49.5 C33,50.8807119 31.8807119,52 30.5,52 L14.5,52 C13.1192881,52 12,50.8807119 12,49.5 C12,48.1192881 13.1192881,47 14.5,47 Z M14.5,58 L30.5,58 C31.8807119,58 33,59.1192881 33,60.5 C33,61.8807119 31.8807119,63 30.5,63 L14.5,63 C13.1192881,63 12,61.8807119 12,60.5 C12,59.1192881 13.1192881,58 14.5,58 Z" id="Combined-Shape" fill="#D8D8D8"></path>
                <path d="M41.0995644,45.0383241 C47.8994166,38.3205586 58.9238102,38.3205586 65.7237105,45.0383241 C72.0020441,51.2406336 72.4784831,60.9982186 67.1639005,67.7459542 L69.94397,70.4936739 C70.3991922,70.3387244 70.885061,70.4087668 71.2039859,70.7253044 L77.684865,77.1273501 C78.1612559,77.5984523 78.0896674,78.4351604 77.5233578,78.9937675 L74.9579096,81.5283776 C74.3913114,82.0883317 73.5456718,82.1597692 73.0677895,81.6884264 L66.5868623,75.2876796 C66.2678892,74.9714306 66.1963007,74.4908995 66.3537185,74.0408196 L63.4972494,71.22147 C56.6978783,76.0076343 47.1996965,75.3909151 41.0992758,69.3646256 C34.3001933,62.647293 34.3001933,51.7556085 41.0995644,45.0383241 Z M44.6906819,65.8171913 C49.5071758,70.5756466 57.3167727,70.5756466 62.1325449,65.8171913 C66.9495198,61.0590246 66.9495198,53.3445986 62.1325449,48.5854698 C57.3163397,43.827255 49.5071758,43.8280247 44.6906819,48.5854698 C39.8744768,53.343877 39.8744768,61.0590246 44.6906819,65.8171913 Z M59.7745976,50.6435416 C60.1498119,51.0138617 60.1498119,51.6123969 59.7745976,51.982717 C59.4005378,52.3522194 58.794537,52.3526524 58.4193227,51.982717 L58.4205736,51.9814663 C55.5461593,49.1536019 50.9060869,49.1536019 48.0338376,51.982717 C47.6602589,52.3522194 47.0525743,52.3522194 46.6789957,51.982717 C46.3049841,51.6128299 46.3056096,51.0138617 46.6789957,50.6445518 C50.2960448,47.0716214 56.1571155,47.0716214 59.7745976,50.6435416 Z" id="Shape" fill="#3C5CDF" fill-rule="nonzero"></path>
            </g>
        </g>
    </g>
</svg>