<?xml version="1.0" encoding="UTF-8"?>
<svg width="87px" height="70px" viewBox="0 0 87 70" version="1.1" xmlns="http://www.w3.org/2000/svg" xmlns:xlink="http://www.w3.org/1999/xlink">
    <!-- Generator: Sketch 48.2 (47327) - http://www.bohemiancoding.com/sketch -->
    <title>HowItWorks-icon-2</title>
    <desc>Created with Sketch.</desc>
    <defs></defs>
    <g id="How-It-Works" stroke="none" stroke-width="1" fill="none" fill-rule="evenodd" transform="translate(-477.000000, -296.000000)">
        <g id="HowItWorks-icon-2">
            <g transform="translate(477.000000, 296.000000)">
                <circle id="Oval-8" fill="#4568E5" cx="15" cy="15" r="15"></circle>
                <circle id="Oval-8-Copy" fill="#4568E5" cx="15" cy="55" r="15"></circle>
                <rect id="Rectangle-42" fill="#D8D8D8" x="42" y="7" width="45" height="5" rx="2.5"></rect>
                <rect id="Rectangle-42-Copy-2" fill="#D8D8D8" x="42" y="47" width="45" height="5" rx="2.5"></rect>
                <rect id="Rectangle-42-Copy" fill="#D8D8D8" x="42" y="18" width="45" height="5" rx="2.5"></rect>
                <rect id="Rectangle-42-Copy-3" fill="#D8D8D8" x="42" y="58" width="45" height="5" rx="2.5"></rect>
                <path d="M21.609375,60.6171875 C21.869793,60.9036473 22,61.2421855 22,61.6328125 C22,62.0234395 21.869793,62.348957 21.609375,62.609375 C21.348957,62.869793 21.0234395,63 20.6328125,63 C20.2421855,63 19.9036473,62.869793 19.6171875,62.609375 L14.5,57.4921875 L9.3828125,62.609375 C9.09635273,62.869793 8.77083516,63 8.40625,63 C8.04166484,63 7.71614727,62.869793 7.4296875,62.609375 C7.14322773,62.348957 7,62.0234395 7,61.6328125 C7,61.2421855 7.14322773,60.9036473 7.4296875,60.6171875 L12.5078125,55.5 L7.4296875,50.3828125 C7.14322773,50.0963527 7,49.7578145 7,49.3671875 C7,48.9765605 7.14322773,48.651043 7.4296875,48.390625 C7.71614727,48.130207 8.04166484,48 8.40625,48 C8.77083516,48 9.09635273,48.130207 9.3828125,48.390625 L14.5,53.5078125 L19.6171875,48.390625 C19.9036473,48.130207 20.2421855,48 20.6328125,48 C21.0234395,48 21.348957,48.130207 21.609375,48.390625 C21.869793,48.651043 22,48.9765605 22,49.3671875 C22,49.7578145 21.869793,50.0963527 21.609375,50.3828125 L16.4921875,55.5 L21.609375,60.6171875 Z" id="wrong" fill="#FFFFFF"></path>
                <path d="M23.171875,9.796875 C23.2239586,9.90104219 23.25,9.97916641 23.25,10.03125 C23.25,10.0833336 23.2239586,10.1614578 23.171875,10.265625 L13.4453125,22.765625 C13.2890617,22.9218758 13.1718754,23 13.09375,23 C12.963541,23 12.833334,22.9348965 12.703125,22.8046875 L7.1953125,17.4921875 L7.078125,17.375 C7.02604141,17.2708328 7,17.1927086 7,17.140625 C7,17.1145832 7.02604141,17.0494797 7.078125,16.9453125 L7.15625,16.8671875 C7.88542031,16.0859336 8.45833125,15.4869812 8.875,15.0703125 C9.03125078,14.9140617 9.13541641,14.8359375 9.1875,14.8359375 C9.29166719,14.8359375 9.42187422,14.9140617 9.578125,15.0703125 L12.703125,18.1171875 L20.515625,8.078125 C20.5677086,8.02604141 20.6458328,8 20.75,8 C20.8281254,8 20.9192703,8.02604141 21.0234375,8.078125 L23.171875,9.796875 Z" id="check" fill="#FFFFFF"></path>
            </g>
        </g>
    </g>
</svg>